<svg width="69" height="49" viewBox="0 0 69 49" fill="none" xmlns="http://www.w3.org/2000/svg">
<g clip-path="url(#clip0_1_2)">
<path d="M60.3129 37.687C63.2065 37.687 65.7193 37.687 65.7193 37.687C66.7975 37.687 67.6711 38.5629 67.6711 39.6434C67.6711 40.7238 66.7975 41.5997 65.7193 41.5997H51.1295M61.2889 38.3993C61.2889 38.3993 61.2889 28.5259 61.2889 23.1029C61.2889 10.9892 51.4899 1.16907 39.403 1.16907H12.8417C6.29776 1.16907 0.992798 6.48569 0.992798 13.0441V39.9232C0.992798 40.8491 1.74174 41.5997 2.66559 41.5997C4.66824 41.5997 6.58736 41.5997 8.43884 41.5997C8.72422 41.5997 9.00797 41.5997 9.29017 41.5997M9.29017 41.5997C9.79074 45.1224 12.8128 47.8309 16.4661 47.8309C20.1194 47.8309 23.1415 45.1224 23.6421 41.5997M9.29017 41.5997C9.24217 41.2621 9.21735 40.9171 9.21735 40.5662C9.21735 36.554 12.4627 33.3015 16.4661 33.3015C20.4695 33.3015 23.7149 36.554 23.7149 40.5662C23.7149 40.9171 23.6901 41.2621 23.6421 41.5997M56.6887 41.5997C51.8592 41.5997 47.5156 41.5997 43.4352 41.5997M23.6421 41.5997C23.9528 41.5997 24.2627 41.5997 24.5719 41.5997C25.8524 41.5997 27.1216 41.5997 28.3879 41.5997M28.3879 41.5997C28.8885 45.1224 31.9106 47.8309 35.5638 47.8309C39.5672 47.8309 42.8126 44.5784 42.8126 40.5662C42.8126 36.554 39.5672 33.3015 35.5638 33.3015C31.5605 33.3015 28.3151 36.554 28.3151 40.5662C28.3151 40.9171 28.3399 41.2621 28.3879 41.5997ZM9.21735 11.7867H42.8126V26.875H9.21735V11.7867Z" stroke="black" stroke-width="1.98561"/>
</g>
<defs>
<clipPath id="clip0_1_2">
<rect width="69" height="49" fill="white"/>
</clipPath>
</defs>
</svg>
