<svg width="139" height="98" viewBox="0 0 139 98" fill="none" xmlns="http://www.w3.org/2000/svg">
<g clip-path="url(#clip0_1_2)">
<mask id="mask0_1_2" style="mask-type:alpha" maskUnits="userSpaceOnUse" x="-54" y="-70" width="240" height="197">
<path d="M12 -67L182 20.5L87.5 112.5V21.3591L17 22V55.5H87.5L128 54H178.5L172 124L-51 122L12 -67Z" fill="#C1BBBB" stroke="black" stroke-width="4"/>
</mask>
<g mask="url(#mask0_1_2)">
<path d="M132.391 75.5652H129L123.42 75.57C123.42 75.57 123.466 57.1102 123.466 46.1856C123.466 21.7826 103.726 2 79.377 2H25.8696C12.6868 2 2 12.7103 2 25.9222V80.07C2 81.9352 3.50873 83.4472 5.36983 83.4472H17H18.715C19.7234 90.5437 25.8114 96 33.1709 96C40.5305 96 46.6184 90.5437 47.6269 83.4472H49.5H57.1872C58.1957 90.5437 64.2836 96 71.6431 96C79.0027 96 85.0906 90.5437 86.0991 83.4472H87.5H103H114.199H132.391C134.563 83.4472 136.323 81.6828 136.323 79.5062C136.323 77.3297 134.563 75.5652 132.391 75.5652Z" fill="white"/>
<path d="M103 83.4472H132.391C134.563 83.4472 136.323 81.6828 136.323 79.5062C136.323 77.3297 134.563 75.5652 132.391 75.5652C132.391 75.5652 134.829 75.5652 129 75.5652L123.42 75.57C123.42 75.57 123.466 57.1102 123.466 46.1856C123.466 21.7826 103.726 2 79.377 2H25.8696C12.6868 2 2 12.7103 2 25.9222V80.07C2 81.9352 3.50873 83.4472 5.36983 83.4472C9.40416 83.4472 13.2702 83.4472 17 83.4472C17.5749 83.4472 18.1465 83.4472 18.715 83.4472C19.7234 90.5437 25.8114 96 33.1709 96C40.5305 96 46.6184 90.5437 47.6269 83.4472C48.2527 83.4472 48.877 83.4472 49.5 83.4472C52.0795 83.4472 54.6362 83.4472 57.1872 83.4472C58.1957 90.5437 64.2836 96 71.6431 96C79.0027 96 85.0906 90.5437 86.0991 83.4472H87.5C95.7198 83.4472 104.47 83.4472 114.199 83.4472" stroke="black" stroke-width="3"/>
</g>
<path d="M103 83.4472H132.391C134.563 83.4472 136.323 81.6828 136.323 79.5062C136.323 77.3297 134.563 75.5652 132.391 75.5652C132.391 75.5652 134.829 75.5652 129 75.5652L123.42 75.57C123.42 75.57 123.466 57.1102 123.466 46.1856C123.466 21.7826 103.726 2 79.377 2H25.8696C12.6868 2 2 12.7103 2 25.9222V80.07C2 81.9352 3.50873 83.4472 5.36983 83.4472C9.40416 83.4472 13.2702 83.4472 17 83.4472C17.5749 83.4472 18.1465 83.4472 18.715 83.4472M114.199 83.4472C104.47 83.4472 95.7198 83.4472 87.5 83.4472M18.715 83.4472C19.7234 90.5437 25.8114 96 33.1709 96C40.5305 96 46.6184 90.5437 47.6269 83.4472M18.715 83.4472C18.6183 82.7672 18.5683 82.0721 18.5683 81.3653C18.5683 73.2827 25.1061 66.7305 33.1709 66.7305C41.2357 66.7305 47.7735 73.2827 47.7735 81.3653C47.7735 82.0721 47.7235 82.7672 47.6269 83.4472M47.6269 83.4472C48.2527 83.4472 48.877 83.4472 49.5 83.4472C52.0795 83.4472 54.6362 83.4472 57.1872 83.4472M57.1872 83.4472C58.1957 90.5437 64.2836 96 71.6431 96C79.7079 96 86.2457 89.4478 86.2457 81.3653C86.2457 73.2827 79.7079 66.7305 71.6431 66.7305C63.5784 66.7305 57.0405 73.2827 57.0405 81.3653C57.0405 82.0721 57.0905 82.7672 57.1872 83.4472ZM18.5683 23.3892H86.2457V53.7844H18.5683V23.3892Z" stroke="black" stroke-width="3"/>
</g>
<defs>
<clipPath id="clip0_1_2">
<rect width="139" height="98" fill="white"/>
</clipPath>
</defs>
</svg>
